<svg width="32" height="32" viewBox="0 0 32 32" fill="none" xmlns="http://www.w3.org/2000/svg">
<path d="M20.952 24.032L20.099 25.45L19.821 30.072C19.821 30.585 18.108 31 16.002 31C13.896 31 12.183 30.585 12.183 30.072L11.832 25.496L10.93 24.032C13.424 25.029 18.555 24.995 20.952 24.032ZM9.091 9.43303L9.914 16.666C10.271 15.513 11.173 13.957 12.335 13.485C12.716 13.329 13.104 13.329 13.467 13.537C13.782 13.71 14.048 14.073 14.078 14.217C14.151 14.592 13.957 14.741 13.806 14.741C13.624 14.741 13.485 14.476 13.394 14.32C13.146 13.899 12.771 13.882 12.371 14.159C11.953 14.447 11.59 14.931 11.336 15.352C11.027 15.859 10.767 16.418 10.61 16.977C10.519 17.3 10.435 17.818 10.574 18.124C10.635 18.251 10.725 18.331 10.871 18.331C11.174 18.331 11.615 17.951 11.827 17.749C12.099 17.49 12.45 17.086 12.583 16.827L12.898 15.934C13.055 15.542 13.497 15.611 13.497 15.934C13.497 16.522 13.273 16.718 12.892 17.934C12.541 19.058 12.432 19.421 12.432 19.421C12.39 19.582 12.226 19.853 12.051 19.853C11.978 19.853 11.924 19.83 11.894 19.784C11.833 19.703 11.84 19.479 11.846 19.421C11.858 19.237 12.227 18.142 12.288 17.969C12.167 18.096 12.04 18.223 11.901 18.349C11.574 18.643 11.048 19.029 10.6 19.029C10.394 19.029 10.261 18.977 10.134 18.891L10.594 23.479C10.715 23.767 12.966 24.465 15.931 24.465C18.902 24.465 21.153 23.762 21.268 23.479L21.928 18.027C21.583 18.327 21.184 18.696 20.742 18.88C20.415 19.013 19.689 19.099 19.689 18.551C19.689 18.251 20.24 17.698 20.56 17.312C20.645 17.214 20.844 16.972 20.844 16.845C20.844 16.678 20.481 16.718 20.136 16.989C19.942 17.145 19.761 17.352 19.61 17.548C19.35 17.894 19.211 18.193 19.096 18.441C18.721 19.259 18.848 18.937 18.545 19.709C18.242 20.476 18.291 20.389 18.23 20.516C18.176 20.626 18.097 20.718 17.988 20.775C17.873 20.833 17.716 20.827 17.619 20.758C17.565 20.723 17.54 20.648 17.54 20.545C17.54 20.493 17.546 20.441 17.558 20.389C17.649 20.037 18.03 19.346 18.466 18.412C18.563 18.199 18.527 18.262 18.514 18.279C18.139 18.625 17.854 18.792 17.643 18.884C17.292 19.034 16.856 19.034 16.766 18.648C16.76 18.625 16.76 18.602 16.754 18.579C16.04 19.109 15.283 19.253 15.544 18.112C15.266 18.585 14.782 18.971 14.188 18.971C13.94 18.971 13.758 18.89 13.668 18.677C13.529 18.36 13.747 17.818 13.946 17.305C14.049 17.046 14.188 16.734 14.376 16.371C14.473 16.175 14.63 16.06 14.836 16.112C14.872 16.124 14.903 16.135 14.933 16.152C15.09 16.256 15.03 16.411 14.951 16.567C14.721 16.999 14.521 17.316 14.388 17.766C14.334 17.956 14.267 18.285 14.479 18.285C14.624 18.285 14.763 18.239 14.897 18.147C15.175 17.951 15.399 17.657 15.569 17.369C15.69 17.162 15.835 16.891 15.908 16.66C15.938 16.562 15.975 16.47 16.017 16.383C16.084 16.239 16.174 16.089 16.332 16.089C16.411 16.089 16.477 16.118 16.526 16.175C16.629 16.302 16.605 16.434 16.55 16.573C16.429 16.896 16.266 17.184 16.132 17.535C16.053 17.737 15.969 17.996 15.969 18.209C15.969 18.405 16.193 18.359 16.381 18.278C16.526 18.215 16.671 18.117 16.793 18.019C16.866 17.737 16.847 17.8 18.391 14.088C18.47 13.898 18.615 13.817 18.76 13.817C18.833 13.817 18.893 13.84 18.954 13.88C19.057 13.955 19.057 14.116 19.015 14.237C18.973 14.347 18.979 14.312 18.743 14.842C18.428 15.539 18.223 16.041 17.944 16.681C17.829 16.946 17.478 17.77 17.418 17.966C17.382 18.093 17.339 18.3 17.479 18.3C17.806 18.3 18.647 17.545 18.877 17.32C18.889 17.303 18.907 17.297 18.931 17.285C18.967 17.175 19.004 17.072 19.034 16.968C19.119 16.749 19.197 16.495 19.355 16.317C19.403 16.259 19.458 16.225 19.518 16.225C19.687 16.225 19.772 16.294 19.772 16.456C19.772 16.519 19.73 16.75 19.705 16.813C19.79 16.727 19.88 16.64 19.977 16.554C20.885 15.753 21.532 16.162 21.532 16.566C21.532 16.992 20.993 17.586 20.697 17.915C20.6 18.025 20.4 18.226 20.394 18.284C20.394 18.359 20.448 18.388 20.527 18.388C20.648 18.388 20.914 18.186 21.011 18.117C21.314 17.892 21.725 17.546 22.016 17.304L22.912 9.42003C21.061 10.407 10.949 10.413 9.091 9.43303ZM22.991 8.94403C22.991 10.154 9 10.154 9 8.94403C9 8.43703 12.135 8.02803 15.996 8.02803C16.541 8.02803 17.073 8.03403 17.588 8.05103L18.345 5.44503L22.06 1.03303C22.145 0.952026 22.411 1.02103 22.659 1.23503C22.907 1.44803 23.058 1.69003 22.98 1.77103L22.974 1.77703L19.5 5.95703L18.9 8.10203C21.315 8.25203 22.991 8.56903 22.991 8.94403ZM18.791 9.20903C18.791 9.16303 18.737 9.12303 18.64 9.08803L18.628 9.13403C18.628 9.20903 18.325 9.27203 17.956 9.27203C17.587 9.27203 17.284 9.20903 17.284 9.13403C17.284 9.12803 17.284 9.12203 17.29 9.11703L17.302 9.07703C17.193 9.11203 17.12 9.15803 17.12 9.21003C17.12 9.33103 17.495 9.42303 17.949 9.42303C18.416 9.42803 18.791 9.33003 18.791 9.20903Z" fill="#D34446"/>
</svg>
